<svg width="87" height="87" viewBox="0 0 87 87" fill="none" xmlns="http://www.w3.org/2000/svg">
<path fill-rule="evenodd" clip-rule="evenodd" d="M43.5 87C67.5244 87 87 67.5244 87 43.5C87 19.4756 67.5244 0 43.5 0C19.4756 0 0 19.4756 0 43.5C0 67.5244 19.4756 87 43.5 87ZM39.1699 7.5C41.0944 4.16667 45.9056 4.16667 47.8301 7.5L56.0574 21.75H72.5118C76.3608 21.75 78.7665 25.9167 76.842 29.25L68.6147 43.5L76.842 57.75C78.7665 61.0833 76.3608 65.25 72.5118 65.25H56.0574L47.8301 79.5C45.9056 82.8333 41.0944 82.8333 39.1699 79.5L30.9426 65.25H14.4882C10.6392 65.25 8.23351 61.0833 10.158 57.75L18.3852 43.5L10.158 29.25C8.23351 25.9167 10.6392 21.75 14.4882 21.75H30.9426L39.1699 7.5Z" fill="white"/>
</svg>
